<mxfile host="app.diagrams.net" agent="Mozilla/5.0 (Windows NT 10.0; Win64; x64) AppleWebKit/537.36 (KHTML, like Gecko) Chrome/140.0.0.0 Safari/537.36" version="28.2.0">
  <diagram name="Página-1" id="bxQXKgfupipwRr2n24OV">
    <mxGraphModel dx="1869" dy="527" grid="1" gridSize="10" guides="1" tooltips="1" connect="1" arrows="1" fold="1" page="1" pageScale="1" pageWidth="827" pageHeight="1169" math="0" shadow="0">
      <root>
        <mxCell id="0" />
        <mxCell id="1" parent="0" />
        <mxCell id="68Ct0DMkDucu6nPEEXoF-1" value="Eleitor&lt;div&gt;&lt;br&gt;&lt;/div&gt;" style="shape=umlActor;verticalLabelPosition=bottom;verticalAlign=top;html=1;" vertex="1" parent="1">
          <mxGeometry x="-110" y="150" width="30" height="60" as="geometry" />
        </mxCell>
        <mxCell id="68Ct0DMkDucu6nPEEXoF-2" value="ADM" style="shape=umlActor;verticalLabelPosition=bottom;verticalAlign=top;html=1;" vertex="1" parent="1">
          <mxGeometry x="560" y="140" width="30" height="60" as="geometry" />
        </mxCell>
        <mxCell id="68Ct0DMkDucu6nPEEXoF-3" value="extend" style="edgeStyle=orthogonalEdgeStyle;rounded=0;orthogonalLoop=1;jettySize=auto;html=1;exitX=0;exitY=0.5;exitDx=0;exitDy=0;entryX=1;entryY=0.5;entryDx=0;entryDy=0;dashed=1;endArrow=none;endFill=0;startArrow=classic;startFill=1;" edge="1" parent="1" source="68Ct0DMkDucu6nPEEXoF-5" target="68Ct0DMkDucu6nPEEXoF-12">
          <mxGeometry relative="1" as="geometry" />
        </mxCell>
        <mxCell id="68Ct0DMkDucu6nPEEXoF-4" style="rounded=0;orthogonalLoop=1;jettySize=auto;html=1;exitX=1;exitY=0.5;exitDx=0;exitDy=0;endArrow=none;endFill=0;" edge="1" parent="1" source="68Ct0DMkDucu6nPEEXoF-5">
          <mxGeometry relative="1" as="geometry">
            <mxPoint x="560" y="170" as="targetPoint" />
          </mxGeometry>
        </mxCell>
        <mxCell id="68Ct0DMkDucu6nPEEXoF-5" value="Cadastrar eleitores e candidatos" style="ellipse;whiteSpace=wrap;html=1;" vertex="1" parent="1">
          <mxGeometry x="280" y="20" width="120" height="80" as="geometry" />
        </mxCell>
        <mxCell id="68Ct0DMkDucu6nPEEXoF-6" value="Votar na UEv" style="ellipse;whiteSpace=wrap;html=1;" vertex="1" parent="1">
          <mxGeometry x="-50" y="140" width="120" height="80" as="geometry" />
        </mxCell>
        <mxCell id="68Ct0DMkDucu6nPEEXoF-7" style="rounded=0;orthogonalLoop=1;jettySize=auto;html=1;exitX=1;exitY=0.5;exitDx=0;exitDy=0;endArrow=none;endFill=0;" edge="1" parent="1" source="68Ct0DMkDucu6nPEEXoF-9">
          <mxGeometry relative="1" as="geometry">
            <mxPoint x="560" y="170" as="targetPoint" />
          </mxGeometry>
        </mxCell>
        <mxCell id="68Ct0DMkDucu6nPEEXoF-8" value="extend" style="edgeStyle=orthogonalEdgeStyle;rounded=0;orthogonalLoop=1;jettySize=auto;html=1;exitX=0.5;exitY=1;exitDx=0;exitDy=0;entryX=0.5;entryY=0;entryDx=0;entryDy=0;startArrow=classic;startFill=1;endArrow=none;endFill=0;dashed=1;" edge="1" parent="1" source="68Ct0DMkDucu6nPEEXoF-9" target="68Ct0DMkDucu6nPEEXoF-17">
          <mxGeometry relative="1" as="geometry" />
        </mxCell>
        <mxCell id="68Ct0DMkDucu6nPEEXoF-9" value="Cadastrar UEv&#39;s" style="ellipse;whiteSpace=wrap;html=1;" vertex="1" parent="1">
          <mxGeometry x="280" y="120" width="120" height="80" as="geometry" />
        </mxCell>
        <mxCell id="68Ct0DMkDucu6nPEEXoF-10" style="rounded=0;orthogonalLoop=1;jettySize=auto;html=1;exitX=1;exitY=0.5;exitDx=0;exitDy=0;endArrow=none;endFill=0;" edge="1" parent="1" source="68Ct0DMkDucu6nPEEXoF-11">
          <mxGeometry relative="1" as="geometry">
            <mxPoint x="560" y="170" as="targetPoint" />
          </mxGeometry>
        </mxCell>
        <mxCell id="68Ct0DMkDucu6nPEEXoF-11" value="Verificar votos" style="ellipse;whiteSpace=wrap;html=1;" vertex="1" parent="1">
          <mxGeometry x="280" y="360" width="120" height="80" as="geometry" />
        </mxCell>
        <mxCell id="68Ct0DMkDucu6nPEEXoF-12" value="Modificar eleitores e candidatos" style="ellipse;whiteSpace=wrap;html=1;" vertex="1" parent="1">
          <mxGeometry x="80" y="20" width="120" height="80" as="geometry" />
        </mxCell>
        <mxCell id="68Ct0DMkDucu6nPEEXoF-13" style="edgeStyle=orthogonalEdgeStyle;rounded=0;orthogonalLoop=1;jettySize=auto;html=1;exitX=0;exitY=0.5;exitDx=0;exitDy=0;endArrow=none;endFill=0;" edge="1" parent="1">
          <mxGeometry relative="1" as="geometry">
            <mxPoint x="-70" y="180.30769230769226" as="targetPoint" />
            <mxPoint x="-50" y="180" as="sourcePoint" />
          </mxGeometry>
        </mxCell>
        <mxCell id="68Ct0DMkDucu6nPEEXoF-17" value="Preparação para votação" style="ellipse;whiteSpace=wrap;html=1;" vertex="1" parent="1">
          <mxGeometry x="280" y="260" width="120" height="80" as="geometry" />
        </mxCell>
      </root>
    </mxGraphModel>
  </diagram>
</mxfile>
